<?xml version="1.0" encoding="UTF-8" standalone="no"?>
<svg
   xmlns:dc="http://purl.org/dc/elements/1.1/"
   xmlns:cc="http://creativecommons.org/ns#"
   xmlns:rdf="http://www.w3.org/1999/02/22-rdf-syntax-ns#"
   xmlns:svg="http://www.w3.org/2000/svg"
   xmlns="http://www.w3.org/2000/svg"
   xmlns:sodipodi="http://sodipodi.sourceforge.net/DTD/sodipodi-0.dtd"
   xmlns:inkscape="http://www.inkscape.org/namespaces/inkscape"
   width="256"
   height="1024"
   viewBox="0 0 67.733332 270.93332"
   version="1.1"
   id="svg8"
   sodipodi:docname="playerBulletGreen.svg"
   inkscape:version="1.0.2-2 (e86c870879, 2021-01-15)">
  <defs
     id="defs2" />
  <sodipodi:namedview
     id="base"
     pagecolor="#ffffff"
     bordercolor="#666666"
     borderopacity="1.0"
     inkscape:pageopacity="0.0"
     inkscape:pageshadow="2"
     inkscape:zoom="0.62915038"
     inkscape:cx="307.06515"
     inkscape:cy="680.66493"
     inkscape:document-units="px"
     inkscape:current-layer="layer1"
     inkscape:document-rotation="0"
     showgrid="false"
     inkscape:window-width="2560"
     inkscape:window-height="1377"
     inkscape:window-x="1072"
     inkscape:window-y="244"
     inkscape:window-maximized="1"
     units="px" />
  <metadata
     id="metadata5">
    <rdf:RDF>
      <cc:Work
         rdf:about="">
        <dc:format>image/svg+xml</dc:format>
        <dc:type
           rdf:resource="http://purl.org/dc/dcmitype/StillImage" />
        <dc:title></dc:title>
      </cc:Work>
    </rdf:RDF>
  </metadata>
  <g
     inkscape:label="Capa 1"
     inkscape:groupmode="layer"
     id="layer1"
     transform="translate(-10.144055,-5.1621788)">
    <path
       style="fill:#00ff50;fill-opacity:1;fill-rule:evenodd;stroke:#000000;stroke-width:4.6156;stroke-linecap:butt;stroke-linejoin:round;stroke-miterlimit:4;stroke-dasharray:none"
       d="M 40.276262,273.72236 C 26.53297,272.11617 15.721832,262.7747 12.852255,250.02636 12.46464,248.30433 12.453724,245.3064 12.453724,140.54954 V 32.843225 l 0.491411,-2.042091 c 1.444926,-6.004517 4.481314,-11.097073 9.051909,-15.18164 4.395212,-3.927838 9.478544,-6.4570198 15.361192,-7.6428783 2.87928,-0.5804215 10.083275,-0.5939702 12.983049,-0.024421 13.570591,2.6654333 23.541718,13.0389983 25.011663,26.0211513 0.294797,2.603615 0.287998,210.503114 -0.007,213.228844 -0.380105,3.51237 -1.291707,6.61493 -2.877464,9.79324 -2.836187,5.68456 -8.349726,10.93104 -14.521701,13.81835 -2.174224,1.01714 -6.082253,2.22153 -8.492318,2.61721 -2.351614,0.38608 -7.08268,0.53625 -9.178219,0.29137 z"
       id="path950" />
  </g>
</svg>
